<svg width="32" height="32" viewBox="0 0 32 32" fill="none" xmlns="http://www.w3.org/2000/svg">
<mask id="mask0_367_48" style="mask-type:luminance" maskUnits="userSpaceOnUse" x="0" y="0" width="32" height="32">
<path d="M31.0477 14.8293C31.0477 6.64002 24.3177 0 16.0174 0C7.71708 0 0.987061 6.64002 0.987061 14.8293C0.987061 19.3327 3.02406 23.364 6.2358 26.082L4.43216 29.163V31.6098C4.43216 31.8245 4.61015 32.0001 4.8277 32.0001C4.90087 32.0001 4.96811 31.9805 5.02744 31.9474L7.17322 30.7259L8.84831 27.8654C10.9783 29.0088 13.4207 29.6586 16.0174 29.6586C18.614 29.6586 21.0565 29.0088 23.1884 27.8654L24.8635 30.7259L27.0093 31.9474C27.0686 31.9806 27.1358 32.0001 27.209 32.0001C27.4266 32.0001 27.6045 31.8245 27.6045 31.6098V29.163L25.8009 26.082C29.0107 23.364 31.0477 19.3327 31.0477 14.8293Z" fill="white"/>
</mask>
<g mask="url(#mask0_367_48)">
<path d="M16.0174 29.6586C24.3184 29.6586 31.0477 23.0193 31.0477 14.8293C31.0477 6.6393 24.3184 0 16.0174 0C7.71636 0 0.987061 6.6393 0.987061 14.8293C0.987061 23.0193 7.71636 29.6586 16.0174 29.6586Z" fill="#45EF8A"/>
</g>
<mask id="mask1_367_48" style="mask-type:luminance" maskUnits="userSpaceOnUse" x="0" y="0" width="32" height="32">
<path d="M31.0477 14.8293C31.0477 6.64002 24.3177 0 16.0174 0C7.71708 0 0.987061 6.64002 0.987061 14.8293C0.987061 19.3327 3.02406 23.364 6.2358 26.082L4.43216 29.163V31.6098C4.43216 31.8245 4.61015 32.0001 4.8277 32.0001C4.90087 32.0001 4.96811 31.9805 5.02744 31.9474L7.17322 30.7259L8.84831 27.8654C10.9783 29.0088 13.4207 29.6586 16.0174 29.6586C18.614 29.6586 21.0565 29.0088 23.1884 27.8654L24.8635 30.7259L27.0093 31.9474C27.0686 31.9806 27.1358 32.0001 27.209 32.0001C27.4266 32.0001 27.6045 31.8245 27.6045 31.6098V29.163L25.8009 26.082C29.0107 23.364 31.0477 19.3327 31.0477 14.8293Z" fill="white"/>
</mask>
<g mask="url(#mask1_367_48)">
<path d="M16.0174 29.4635C24.2524 29.4635 30.9369 22.9288 31.0417 14.8293H31.0477C31.0477 23.0186 24.3177 29.6586 16.0174 29.6586C7.71708 29.6586 0.987061 23.0186 0.987061 14.8293H0.992994C1.09781 22.9288 7.78234 29.4635 16.0174 29.4635Z" fill="#263238" fill-opacity="0.2"/>
</g>
<mask id="mask2_367_48" style="mask-type:luminance" maskUnits="userSpaceOnUse" x="0" y="0" width="32" height="32">
<path d="M31.0477 14.8293C31.0477 6.64002 24.3177 0 16.0174 0C7.71708 0 0.987061 6.64002 0.987061 14.8293C0.987061 19.3327 3.02406 23.364 6.2358 26.082L4.43216 29.163V31.6098C4.43216 31.8245 4.61015 32.0001 4.8277 32.0001C4.90087 32.0001 4.96811 31.9805 5.02744 31.9474L7.17322 30.7259L8.84831 27.8654C10.9783 29.0088 13.4207 29.6586 16.0174 29.6586C18.614 29.6586 21.0565 29.0088 23.1884 27.8654L24.8635 30.7259L27.0093 31.9474C27.0686 31.9806 27.1358 32.0001 27.209 32.0001C27.4266 32.0001 27.6045 31.8245 27.6045 31.6098V29.163L25.8009 26.082C29.0107 23.364 31.0477 19.3327 31.0477 14.8293Z" fill="white"/>
</mask>
<g mask="url(#mask2_367_48)">
<path d="M16.0174 0C7.71708 0 0.987061 6.64002 0.987061 14.8293H31.0477C31.0477 6.64002 24.3177 0 16.0174 0Z" fill="#3DDC84"/>
</g>
<mask id="mask3_367_48" style="mask-type:luminance" maskUnits="userSpaceOnUse" x="0" y="0" width="32" height="32">
<path d="M31.0477 14.8293C31.0477 6.64002 24.3177 0 16.0174 0C7.71708 0 0.987061 6.64002 0.987061 14.8293C0.987061 19.3327 3.02406 23.364 6.2358 26.082L4.43216 29.163V31.6098C4.43216 31.8245 4.61015 32.0001 4.8277 32.0001C4.90087 32.0001 4.96811 31.9805 5.02744 31.9474L7.17322 30.7259L8.84831 27.8654C10.9783 29.0088 13.4207 29.6586 16.0174 29.6586C18.614 29.6586 21.0565 29.0088 23.1884 27.8654L24.8635 30.7259L27.0093 31.9474C27.0686 31.9806 27.1358 32.0001 27.209 32.0001C27.4266 32.0001 27.6045 31.8245 27.6045 31.6098V29.163L25.8009 26.082C29.0107 23.364 31.0477 19.3327 31.0477 14.8293Z" fill="white"/>
</mask>
<g mask="url(#mask3_367_48)">
<path d="M16.0175 14.4391C17.1097 14.4391 17.9951 13.5655 17.9951 12.4878C17.9951 11.4102 17.1097 10.5366 16.0175 10.5366C14.9252 10.5366 14.0398 11.4102 14.0398 12.4878C14.0398 13.5655 14.9252 14.4391 16.0175 14.4391Z" fill="#3DDC84"/>
</g>
<mask id="mask4_367_48" style="mask-type:luminance" maskUnits="userSpaceOnUse" x="0" y="0" width="32" height="32">
<path d="M31.0477 14.8293C31.0477 6.64002 24.3177 0 16.0174 0C7.71708 0 0.987061 6.64002 0.987061 14.8293C0.987061 19.3327 3.02406 23.364 6.2358 26.082L4.43216 29.163V31.6098C4.43216 31.8245 4.61015 32.0001 4.8277 32.0001C4.90087 32.0001 4.96811 31.9805 5.02744 31.9474L7.17322 30.7259L8.84831 27.8654C10.9783 29.0088 13.4207 29.6586 16.0174 29.6586C18.614 29.6586 21.0565 29.0088 23.1884 27.8654L24.8635 30.7259L27.0093 31.9474C27.0686 31.9806 27.1358 32.0001 27.209 32.0001C27.4266 32.0001 27.6045 31.8245 27.6045 31.6098V29.163L25.8009 26.082C29.0107 23.364 31.0477 19.3327 31.0477 14.8293Z" fill="white"/>
</mask>
<g mask="url(#mask4_367_48)">
<path d="M31.0477 14.8293H0.987061V14.6342H31.0477V14.8293Z" fill="#263238" fill-opacity="0.05"/>
</g>
<mask id="mask5_367_48" style="mask-type:luminance" maskUnits="userSpaceOnUse" x="0" y="0" width="32" height="32">
<path d="M31.0477 14.8293C31.0477 6.64002 24.3177 0 16.0174 0C7.71708 0 0.987061 6.64002 0.987061 14.8293C0.987061 19.3327 3.02406 23.364 6.2358 26.082L4.43216 29.163V31.6098C4.43216 31.8245 4.61015 32.0001 4.8277 32.0001C4.90087 32.0001 4.96811 31.9805 5.02744 31.9474L7.17322 30.7259L8.84831 27.8654C10.9783 29.0088 13.4207 29.6586 16.0174 29.6586C18.614 29.6586 21.0565 29.0088 23.1884 27.8654L24.8635 30.7259L27.0093 31.9474C27.0686 31.9806 27.1358 32.0001 27.209 32.0001C27.4266 32.0001 27.6045 31.8245 27.6045 31.6098V29.163L25.8009 26.082C29.0107 23.364 31.0477 19.3327 31.0477 14.8293Z" fill="white"/>
</mask>
<g mask="url(#mask5_367_48)">
<path d="M31.0477 15.0244H0.987061V14.8293H31.0477V15.0244Z" fill="white" fill-opacity="0.05"/>
</g>
<mask id="mask6_367_48" style="mask-type:luminance" maskUnits="userSpaceOnUse" x="0" y="0" width="32" height="32">
<path d="M31.0477 14.8293C31.0477 6.64002 24.3177 0 16.0174 0C7.71708 0 0.987061 6.64002 0.987061 14.8293C0.987061 19.3327 3.02406 23.364 6.2358 26.082L4.43216 29.163V31.6098C4.43216 31.8245 4.61015 32.0001 4.8277 32.0001C4.90087 32.0001 4.96811 31.9805 5.02744 31.9474L7.17322 30.7259L8.84831 27.8654C10.9783 29.0088 13.4207 29.6586 16.0174 29.6586C18.614 29.6586 21.0565 29.0088 23.1884 27.8654L24.8635 30.7259L27.0093 31.9474C27.0686 31.9806 27.1358 32.0001 27.209 32.0001C27.4266 32.0001 27.6045 31.8245 27.6045 31.6098V29.163L25.8009 26.082C29.0107 23.364 31.0477 19.3327 31.0477 14.8293Z" fill="white"/>
</mask>
<g mask="url(#mask6_367_48)">
<path d="M12.8194 14.8293L4.82764 32.0001H31.0476V18.7318L17.5994 5.46344L14.4352 7.80491L12.8194 14.8293Z" fill="url(#paint0_linear_367_48)"/>
</g>
<mask id="mask7_367_48" style="mask-type:luminance" maskUnits="userSpaceOnUse" x="0" y="0" width="32" height="32">
<path d="M31.0477 14.8293C31.0477 6.64002 24.3177 0 16.0174 0C7.71708 0 0.987061 6.64002 0.987061 14.8293C0.987061 19.3327 3.02406 23.364 6.2358 26.082L4.43216 29.163V31.6098C4.43216 31.8245 4.61015 32.0001 4.8277 32.0001C4.90087 32.0001 4.96811 31.9805 5.02744 31.9474L7.17322 30.7259L8.84831 27.8654C10.9783 29.0088 13.4207 29.6586 16.0174 29.6586C18.614 29.6586 21.0565 29.0088 23.1884 27.8654L24.8635 30.7259L27.0093 31.9474C27.0686 31.9806 27.1358 32.0001 27.209 32.0001C27.4266 32.0001 27.6045 31.8245 27.6045 31.6098V29.163L25.8009 26.082C29.0107 23.364 31.0477 19.3327 31.0477 14.8293Z" fill="white"/>
</mask>
<g mask="url(#mask7_367_48)">
<path d="M16.0174 0.195122C24.2524 0.195122 30.9369 6.72977 31.0417 14.8293H31.0477C31.0477 6.64002 24.3177 0 16.0174 0C7.71708 0 0.987061 6.64002 0.987061 14.8293H0.992994C1.09781 6.72977 7.78234 0.195122 16.0174 0.195122Z" fill="white" fill-opacity="0.2"/>
</g>
<mask id="mask8_367_48" style="mask-type:luminance" maskUnits="userSpaceOnUse" x="0" y="0" width="32" height="32">
<path d="M31.0477 14.8293C31.0477 6.64002 24.3177 0 16.0174 0C7.71708 0 0.987061 6.64002 0.987061 14.8293C0.987061 19.3327 3.02406 23.364 6.2358 26.082L4.43216 29.163V31.6098C4.43216 31.8245 4.61015 32.0001 4.8277 32.0001C4.90087 32.0001 4.96811 31.9805 5.02744 31.9474L7.17322 30.7259L8.84831 27.8654C10.9783 29.0088 13.4207 29.6586 16.0174 29.6586C18.614 29.6586 21.0565 29.0088 23.1884 27.8654L24.8635 30.7259L27.0093 31.9474C27.0686 31.9806 27.1358 32.0001 27.209 32.0001C27.4266 32.0001 27.6045 31.8245 27.6045 31.6098V29.163L25.8009 26.082C29.0107 23.364 31.0477 19.3327 31.0477 14.8293Z" fill="white"/>
</mask>
<g mask="url(#mask8_367_48)">
<path d="M19.2153 14.8293H15.5605L24.8635 30.7259L27.0093 31.9474C27.0686 31.9805 27.1359 32.0001 27.209 32.0001C27.4266 32.0001 27.6046 31.8244 27.6046 31.6098V29.163L19.2153 14.8293Z" fill="#D7EFFE"/>
<path opacity="0.3" d="M19.2153 14.8293H15.5605L24.8635 30.7259L27.0093 31.9474C27.0686 31.9805 27.1359 32.0001 27.209 32.0001C27.4266 32.0001 27.6046 31.8244 27.6046 31.6098V29.163L19.2153 14.8293Z" fill="#BDBDBD"/>
<path d="M27.6026 29.163L19.2153 14.8293H19.1006L27.6026 29.3581V29.163Z" fill="white" fill-opacity="0.2"/>
<path d="M27.2071 31.8049C27.1339 31.8049 27.0666 31.7854 27.0073 31.7522L24.8615 30.5308L15.6753 14.8293H15.5605L24.8635 30.7259L27.0093 31.9474C27.0686 31.9805 27.1359 32.0001 27.209 32.0001C27.4266 32.0001 27.6046 31.8244 27.6046 31.6098V31.4147C27.6026 31.6293 27.4246 31.8049 27.2071 31.8049Z" fill="#212121" fill-opacity="0.1"/>
</g>
<mask id="mask9_367_48" style="mask-type:luminance" maskUnits="userSpaceOnUse" x="0" y="0" width="32" height="32">
<path d="M31.0477 14.8293C31.0477 6.64002 24.3177 0 16.0174 0C7.71708 0 0.987061 6.64002 0.987061 14.8293C0.987061 19.3327 3.02406 23.364 6.2358 26.082L4.43216 29.163V31.6098C4.43216 31.8245 4.61015 32.0001 4.8277 32.0001C4.90087 32.0001 4.96811 31.9805 5.02744 31.9474L7.17322 30.7259L8.84831 27.8654C10.9783 29.0088 13.4207 29.6586 16.0174 29.6586C18.614 29.6586 21.0565 29.0088 23.1884 27.8654L24.8635 30.7259L27.0093 31.9474C27.0686 31.9806 27.1358 32.0001 27.209 32.0001C27.4266 32.0001 27.6045 31.8245 27.6045 31.6098V29.163L25.8009 26.082C29.0107 23.364 31.0477 19.3327 31.0477 14.8293Z" fill="white"/>
</mask>
<g mask="url(#mask9_367_48)">
<path d="M23.928 14.8293C23.928 19.1395 20.386 22.6342 16.0174 22.6342C14.718 22.6342 13.4919 22.3239 12.4101 21.7756L16.0174 15.6098L16.4742 14.8293H12.8195L4.43018 29.163V31.6098C4.43018 31.8244 4.60817 32.0001 4.82571 32.0001C4.89888 32.0001 4.96612 31.9805 5.02545 31.9474L7.17123 30.7259L10.826 24.482C12.3745 25.2937 14.1405 25.7561 16.0174 25.7561C22.1343 25.7561 27.0923 20.8644 27.0923 14.8293H23.928Z" fill="#D7EFFE"/>
<path d="M12.8195 14.8293L4.43018 29.163V29.3581L12.9342 14.8293H12.8195ZM16.0174 22.6342C14.718 22.6342 13.4919 22.3239 12.4101 21.7756V21.9708C13.4919 22.5191 14.718 22.8293 16.0174 22.8293C20.386 22.8293 23.928 19.3347 23.928 15.0244H27.0864C27.0884 14.96 27.0923 14.8956 27.0923 14.8293H23.928C23.928 19.1395 20.386 22.6342 16.0174 22.6342Z" fill="white" fill-opacity="0.4"/>
<path d="M16.4742 14.8293H16.3595L12.4081 21.5805V21.7756L16.4742 14.8293ZM27.0864 14.8293C26.9796 20.7727 22.0671 25.561 16.0174 25.561C14.1405 25.561 12.3745 25.0986 10.826 24.2869L7.17123 30.5308L5.02545 31.7522C4.96612 31.7854 4.89888 31.8049 4.82571 31.8049C4.60817 31.8049 4.43018 31.6293 4.43018 31.4147V31.6098C4.43018 31.8244 4.60817 32.0001 4.82571 32.0001C4.89888 32.0001 4.96612 31.9805 5.02545 31.9474L7.17123 30.7259L10.826 24.482C12.3745 25.2937 14.1405 25.7561 16.0174 25.7561C22.1343 25.7561 27.0923 20.8644 27.0923 14.8293H27.0864Z" fill="#212121" fill-opacity="0.1"/>
</g>
<mask id="mask10_367_48" style="mask-type:luminance" maskUnits="userSpaceOnUse" x="0" y="0" width="32" height="32">
<path d="M31.0477 14.8293C31.0477 6.64002 24.3177 0 16.0174 0C7.71708 0 0.987061 6.64002 0.987061 14.8293C0.987061 19.3327 3.02406 23.364 6.2358 26.082L4.43216 29.163V31.6098C4.43216 31.8245 4.61015 32.0001 4.8277 32.0001C4.90087 32.0001 4.96811 31.9805 5.02744 31.9474L7.17322 30.7259L8.84831 27.8654C10.9783 29.0088 13.4207 29.6586 16.0174 29.6586C18.614 29.6586 21.0565 29.0088 23.1884 27.8654L24.8635 30.7259L27.0093 31.9474C27.0686 31.9806 27.1358 32.0001 27.209 32.0001C27.4266 32.0001 27.6045 31.8245 27.6045 31.6098V29.163L25.8009 26.082C29.0107 23.364 31.0477 19.3327 31.0477 14.8293Z" fill="white"/>
</mask>
<g mask="url(#mask10_367_48)">
<path d="M19.5772 7.80491H17.5995V5.46344H14.4353V7.80491H12.4576C11.805 7.80491 11.271 8.33174 11.271 8.97564V14.8293L15.1789 18.681C15.3944 18.8918 15.6891 19.0244 16.0174 19.0244C16.3457 19.0244 16.6424 18.8937 16.8559 18.681L20.7638 14.8293V8.97564C20.7638 8.33174 20.2298 7.80491 19.5772 7.80491ZM16.0174 14.4391C14.9257 14.4391 14.0397 13.5649 14.0397 12.4878C14.0397 11.4108 14.9257 10.5366 16.0174 10.5366C17.1091 10.5366 17.9951 11.4108 17.9951 12.4878C17.9951 13.5649 17.1091 14.4391 16.0174 14.4391Z" fill="#073042"/>
</g>
<mask id="mask11_367_48" style="mask-type:luminance" maskUnits="userSpaceOnUse" x="0" y="0" width="32" height="32">
<path d="M31.0477 14.8293C31.0477 6.64002 24.3177 0 16.0174 0C7.71708 0 0.987061 6.64002 0.987061 14.8293C0.987061 19.3327 3.02406 23.364 6.2358 26.082L4.43216 29.163V31.6098C4.43216 31.8245 4.61015 32.0001 4.8277 32.0001C4.90087 32.0001 4.96811 31.9805 5.02744 31.9474L7.17322 30.7259L8.84831 27.8654C10.9783 29.0088 13.4207 29.6586 16.0174 29.6586C18.614 29.6586 21.0565 29.0088 23.1884 27.8654L24.8635 30.7259L27.0093 31.9474C27.0686 31.9806 27.1358 32.0001 27.209 32.0001C27.4266 32.0001 27.6045 31.8245 27.6045 31.6098V29.163L25.8009 26.082C29.0107 23.364 31.0477 19.3327 31.0477 14.8293Z" fill="white"/>
</mask>
<g mask="url(#mask11_367_48)">
<path d="M19.5772 7.80491H17.5995V8.00003H19.5772C20.2298 8.00003 20.7638 8.52686 20.7638 9.17076V8.97564C20.7638 8.33174 20.2298 7.80491 19.5772 7.80491ZM17.5995 5.46344H14.4353V5.65856H17.5995V5.46344ZM14.4353 7.80491H12.4576C11.805 7.80491 11.271 8.33174 11.271 8.97564V9.17076C11.271 8.52686 11.805 8.00003 12.4576 8.00003H14.4353V7.80491ZM16.0174 14.4391C14.9257 14.4391 14.0397 13.5649 14.0397 12.4878V12.683C14.0397 13.76 14.9257 14.6342 16.0174 14.6342C17.1091 14.6342 17.9951 13.76 17.9951 12.683V12.4878C17.9951 13.5649 17.1091 14.4391 16.0174 14.4391Z" fill="white" fill-opacity="0.1"/>
</g>
<mask id="mask12_367_48" style="mask-type:luminance" maskUnits="userSpaceOnUse" x="0" y="0" width="32" height="32">
<path d="M31.0477 14.8293C31.0477 6.64002 24.3177 0 16.0174 0C7.71708 0 0.987061 6.64002 0.987061 14.8293C0.987061 19.3327 3.02406 23.364 6.2358 26.082L4.43216 29.163V31.6098C4.43216 31.8245 4.61015 32.0001 4.8277 32.0001C4.90087 32.0001 4.96811 31.9805 5.02744 31.9474L7.17322 30.7259L8.84831 27.8654C10.9783 29.0088 13.4207 29.6586 16.0174 29.6586C18.614 29.6586 21.0565 29.0088 23.1884 27.8654L24.8635 30.7259L27.0093 31.9474C27.0686 31.9806 27.1358 32.0001 27.209 32.0001C27.4266 32.0001 27.6045 31.8245 27.6045 31.6098V29.163L25.8009 26.082C29.0107 23.364 31.0477 19.3327 31.0477 14.8293Z" fill="white"/>
</mask>
<g mask="url(#mask12_367_48)">
<path d="M16.0174 10.5366C17.1091 10.5366 17.9951 11.4108 17.9951 12.4878V12.2927C17.9951 11.2156 17.1091 10.3415 16.0174 10.3415C14.9257 10.3415 14.0397 11.2156 14.0397 12.2927V12.4878C14.0397 11.4108 14.9257 10.5366 16.0174 10.5366ZM16.8559 18.4859C16.6404 18.6966 16.3457 18.8293 16.0174 18.8293C15.6891 18.8293 15.3925 18.6986 15.1789 18.4859L11.271 14.6342V14.8293L15.1789 18.681C15.3944 18.8918 15.6891 19.0244 16.0174 19.0244C16.3457 19.0244 16.6424 18.8937 16.8559 18.681L20.7638 14.8293V14.6342L16.8559 18.4859Z" fill="#212121" fill-opacity="0.1"/>
</g>
<path d="M31.0477 14.8293C31.0477 6.64001 24.3177 0 16.0174 0C7.71708 0 0.987061 6.64001 0.987061 14.8293C0.987061 19.3327 3.02406 23.364 6.2358 26.082L4.43216 29.163V31.6098C4.43216 31.8245 4.61015 32.0001 4.8277 32.0001C4.90087 32.0001 4.96811 31.9806 5.02744 31.9474L7.17322 30.7259L8.84831 27.8654C10.9783 29.0088 13.4207 29.6586 16.0174 29.6586C18.614 29.6586 21.0565 29.0088 23.1884 27.8654L24.8635 30.7259L27.0093 31.9474C27.0686 31.9806 27.1358 32.0001 27.209 32.0001C27.4266 32.0001 27.6045 31.8245 27.6045 31.6098V29.163L25.8009 26.082C29.0107 23.364 31.0477 19.3327 31.0477 14.8293Z" fill="url(#paint1_radial_367_48)"/>
<defs>
<linearGradient id="paint0_linear_367_48" x1="12.5285" y1="19.3021" x2="26.6251" y2="27.3017" gradientUnits="userSpaceOnUse">
<stop stop-color="#263238" stop-opacity="0.2"/>
<stop offset="1" stop-color="#263238" stop-opacity="0.02"/>
</linearGradient>
<radialGradient id="paint1_radial_367_48" cx="0" cy="0" r="1" gradientUnits="userSpaceOnUse" gradientTransform="translate(5.40874 4.32996) scale(35.6226 37.9209)">
<stop stop-color="white" stop-opacity="0.1"/>
<stop offset="1" stop-color="white" stop-opacity="0"/>
</radialGradient>
</defs>
</svg>
