<svg width="21" height="18" viewBox="0 0 21 18" fill="none" xmlns="http://www.w3.org/2000/svg">
<path d="M15.5947 0.5H5.59473C2.59473 0.5 0.594727 2 0.594727 5.5V12.5C0.594727 16 2.59473 17.5 5.59473 17.5H15.5947C18.5947 17.5 20.5947 16 20.5947 12.5V5.5C20.5947 2 18.5947 0.5 15.5947 0.5ZM16.0647 6.59L12.9347 9.09C12.2747 9.62 11.4347 9.88 10.5947 9.88C9.75473 9.88 8.90473 9.62 8.25473 9.09L5.12473 6.59C4.80473 6.33 4.75473 5.85 5.00473 5.53C5.26473 5.21 5.73473 5.15 6.05473 5.41L9.18473 7.91C9.94473 8.52 11.2347 8.52 11.9947 7.91L15.1247 5.41C15.4447 5.15 15.9247 5.2 16.1747 5.53C16.4347 5.85 16.3847 6.33 16.0647 6.59Z" fill="#1BBB1E"/>
</svg>
