<svg width="33" height="32" viewBox="0 0 33 32" fill="none" xmlns="http://www.w3.org/2000/svg">
<path d="M31.8773 14.5742L17.923 0.603557C17.12 -0.201186 15.8165 -0.201186 15.0125 0.603557L12.1149 3.50477L15.7906 7.1851C16.6448 6.89613 17.6242 7.08995 18.3053 7.7718C18.9894 8.45787 19.1816 9.44694 18.886 10.3051L22.4284 13.852C23.2855 13.5563 24.2744 13.7477 24.9589 14.4341C25.9155 15.3916 25.9155 16.9435 24.9589 17.9016C24.0019 18.8598 22.4519 18.8598 21.4946 17.9016C20.775 17.1805 20.5972 16.1222 20.9616 15.2346L17.6579 11.9268L17.6576 20.6315C17.8908 20.7474 18.111 20.9015 18.3053 21.0953C19.2619 22.0528 19.2619 23.6047 18.3053 24.5636C17.3483 25.5214 15.7976 25.5214 14.842 24.5636C13.8854 23.6047 13.8854 22.0528 14.842 21.0953C15.0784 20.859 15.3519 20.6803 15.6437 20.5602V11.7744C15.3519 11.6551 15.0787 11.4774 14.842 11.2394C14.1172 10.5147 13.9429 9.44975 14.3143 8.55864L10.6911 4.93027L1.12309 14.5096C0.318997 15.315 0.318997 16.6201 1.12309 17.4248L15.0773 31.3958C15.8807 32.2006 17.1838 32.2006 17.9882 31.3958L31.8773 17.4898C32.681 16.6847 32.681 15.3789 31.8773 14.5742Z" fill="#DE4C36"/>
</svg>
