<svg width="33" height="32" viewBox="0 0 33 32" fill="none" xmlns="http://www.w3.org/2000/svg">
<path fill-rule="evenodd" clip-rule="evenodd" d="M16.608 0C7.75306 0 0.594727 7.2111 0.594727 16.1322C0.594727 23.2633 5.18132 29.2997 11.5441 31.4362C12.3396 31.5968 12.631 31.089 12.631 30.6619C12.631 30.2879 12.6048 29.006 12.6048 27.6703C8.15032 28.632 7.22271 25.7472 7.22271 25.7472C6.50685 23.8776 5.44616 23.3971 5.44616 23.3971C3.98821 22.4088 5.55236 22.4088 5.55236 22.4088C7.16961 22.5157 8.01823 24.0648 8.01823 24.0648C9.44963 26.5218 11.7562 25.8276 12.6841 25.4001C12.8166 24.3585 13.241 23.6373 13.6917 23.2368C10.139 22.8628 6.40098 21.474 6.40098 15.2774C6.40098 13.5146 7.03686 12.0724 8.04445 10.9507C7.88548 10.5502 7.32859 8.89391 8.20375 6.67715C8.20375 6.67715 9.55583 6.24973 12.6045 8.33309C13.9097 7.97996 15.2558 7.80032 16.608 7.79881C17.96 7.79881 19.3384 7.98597 20.6111 8.33309C23.6601 6.24973 25.0122 6.67715 25.0122 6.67715C25.8873 8.89391 25.3301 10.5502 25.1712 10.9507C26.2053 12.0724 26.815 13.5146 26.815 15.2774C26.815 21.474 23.077 22.8359 19.4977 23.2368C20.0811 23.7442 20.5846 24.7056 20.5846 26.2281C20.5846 28.3914 20.5583 30.1277 20.5583 30.6616C20.5583 31.089 20.8501 31.5968 21.6452 31.4365C28.0081 29.2994 32.5947 23.2633 32.5947 16.1322C32.6209 7.2111 25.4363 0 16.608 0Z" fill="#F0F0F0"/>
</svg>
