<svg width="32" height="33" viewBox="0 0 32 33" fill="none" xmlns="http://www.w3.org/2000/svg">
<path d="M15.9998 3.10413C8.63584 3.10413 2.6665 9.07346 2.6665 16.4375C2.6665 22.3621 6.53384 27.3781 11.8798 29.1148H20.1198C25.4658 27.3781 29.3332 22.3621 29.3332 16.4375C29.3332 9.07346 23.3638 3.10413 15.9998 3.10413Z" fill="#353535"/>
<path opacity="0.05" d="M20.0067 28.4348L20 24.5695C20 23.9435 19.8533 23.3321 19.572 22.7781C23.3327 22.0228 25.1627 19.7995 25.1627 15.9935C25.1627 14.4901 24.7194 13.1628 23.8454 12.0468C23.912 11.8355 23.9613 11.6168 23.992 11.3928C24.1173 10.4801 23.9767 9.88347 23.8633 9.40347L23.8454 9.32614C23.7213 8.79547 23.5727 8.41681 23.5667 8.40081L23.4927 8.21281L23.4187 8.02481L23.2174 8.00347L23.0153 7.98214C23.0153 7.98214 22.8827 7.96814 22.6813 7.96814C22.402 7.96814 21.988 7.99614 21.5967 8.12881L21.466 8.17281C20.9727 8.33881 20.5067 8.49614 19.8547 8.88547C19.664 8.99947 19.4553 9.12947 19.232 9.27481C18.2227 9.02481 17.1367 8.89747 16 8.89747C14.852 8.89747 13.7567 9.02547 12.7407 9.27814C12.5147 9.13147 12.3047 9.00014 12.1127 8.88547C11.4607 8.49614 10.9947 8.33947 10.5013 8.17281L10.3707 8.12881C9.98068 7.99614 9.56601 7.96814 9.28668 7.96814C9.08535 7.96814 8.95268 7.98214 8.95268 7.98214L8.75135 8.00347L8.55135 8.02414L8.47668 8.21147L8.40135 8.40014C8.39468 8.41747 8.24601 8.79614 8.12201 9.32747L8.10401 9.40414C7.99068 9.88347 7.85001 10.4808 7.97535 11.3928C8.00735 11.6235 8.05868 11.8495 8.12868 12.0668C7.27201 13.1775 6.83801 14.4975 6.83801 15.9935C6.83801 19.7901 8.67001 22.0121 12.436 22.7735C12.3067 23.0321 12.206 23.3055 12.1347 23.5895C12.0033 23.6341 11.8827 23.6641 11.776 23.6808C11.6173 23.7048 11.4513 23.7168 11.2833 23.7168C10.826 23.7168 10.4667 23.6275 10.3267 23.5441C10.118 23.4201 9.74535 23.0595 9.38401 22.5321C9.07535 22.0821 8.59401 21.4935 8.05601 21.2475C7.59068 21.0348 7.09801 20.9128 6.70335 20.9128C6.61135 20.9128 6.52668 20.9195 6.45268 20.9315C6.10801 20.9861 5.82001 21.1755 5.66335 21.4515C5.52801 21.6895 5.50668 21.9668 5.60468 22.2121C5.75068 22.5775 6.17201 22.8688 6.50001 23.0488C6.66135 23.1375 7.01001 23.4615 7.21335 23.7881C7.36601 24.0335 7.43668 24.2081 7.53468 24.4495C7.59268 24.5928 7.65668 24.7488 7.74335 24.9375C8.05668 25.6188 9.03468 26.2201 9.14535 26.2861C9.68268 26.6081 10.586 26.7115 11.25 26.7415L11.332 26.7435H11.3327C11.4927 26.7435 11.7127 26.7281 12.002 26.6961V28.4381C12.0033 28.7908 11.644 28.8708 11.1687 28.8635L11.5333 28.9861C12.93 29.4855 14.43 29.7708 16 29.7708C17.57 29.7708 19.07 29.4855 20.4687 28.9868L20.9373 28.8121C20.4633 28.7961 20.0107 28.7188 20.0067 28.4348Z" fill="black"/>
<path opacity="0.07" d="M20.5208 28.9688C20.2502 29.0002 19.6668 28.8962 19.6668 28.4388V24.5695C19.6668 23.8402 19.4482 23.1355 19.0428 22.5348C22.9862 21.8968 24.8288 19.8062 24.8288 15.9935C24.8288 14.5022 24.3715 13.1975 23.4695 12.1122C23.5608 11.8688 23.6248 11.6122 23.6615 11.3475C23.7782 10.4968 23.6508 9.95685 23.5388 9.48018L23.5208 9.40285C23.4022 8.89551 23.2622 8.53818 23.2562 8.52351L23.1822 8.33551L22.9802 8.31418C22.9802 8.31418 22.8615 8.30151 22.6808 8.30151C22.4268 8.30151 22.0515 8.32618 21.7035 8.44485L21.5728 8.48885C21.0968 8.64951 20.6468 8.80085 20.0255 9.17151C19.8042 9.30351 19.5575 9.45885 19.2915 9.63418C18.2695 9.36685 17.1635 9.23085 16.0002 9.23085C14.8255 9.23085 13.7102 9.36751 12.6808 9.63751C12.4122 9.46085 12.1642 9.30485 11.9415 9.17151C11.3202 8.80085 10.8702 8.64885 10.3942 8.48885L10.2635 8.44485C9.91616 8.32685 9.54016 8.30151 9.28616 8.30151C9.10549 8.30151 8.98682 8.31418 8.98682 8.31418L8.78549 8.33551L8.71016 8.52418C8.70416 8.53885 8.56416 8.89618 8.44549 9.40351L8.42749 9.48085C8.31482 9.95751 8.18749 10.4968 8.30482 11.3475C8.34216 11.6188 8.40882 11.8815 8.50349 12.1302C7.61882 13.2102 7.17082 14.5082 7.17082 15.9935C7.17082 19.7955 9.01482 21.8855 12.9615 22.5308C12.6982 22.9242 12.5142 23.3675 12.4195 23.8402C12.1995 23.9268 12.0002 23.9842 11.8255 24.0108C11.6502 24.0375 11.4675 24.0508 11.2828 24.0508C10.8228 24.0508 10.3808 23.9648 10.1562 23.8315C9.86282 23.6575 9.45149 23.2222 9.10816 22.7215C8.87482 22.3815 8.41016 21.7768 7.91616 21.5515C7.49282 21.3582 7.05082 21.2468 6.70216 21.2468C6.62882 21.2468 6.56215 21.2522 6.50349 21.2615C6.25949 21.3002 6.05815 21.4295 5.95149 21.6175C5.86615 21.7668 5.85215 21.9395 5.91215 22.0895C6.03149 22.3882 6.47349 22.6562 6.65816 22.7575C6.88149 22.8802 7.27082 23.2535 7.49416 23.6135C7.66149 23.8828 7.74082 24.0782 7.84149 24.3248C7.89816 24.4642 7.96016 24.6162 8.04416 24.7995C8.26482 25.2788 8.94616 25.7808 9.31416 26.0015C9.81682 26.3028 10.7502 26.3868 11.2622 26.4095L11.3362 26.4108C11.5355 26.4108 11.8695 26.3808 12.3328 26.3208V28.4388C12.3328 28.9582 11.6722 28.9788 11.5102 28.9788C11.4895 28.9788 11.8455 29.1015 11.8455 29.1015C13.1542 29.5308 14.5482 29.7708 16.0002 29.7708C17.4522 29.7708 18.8462 29.5308 20.1542 29.1022C20.1542 29.1022 20.5415 28.9662 20.5208 28.9688Z" fill="black"/>
<path d="M24.496 15.9935C24.496 14.4535 23.9747 13.1762 23.0847 12.1748C23.1814 11.9582 23.282 11.6675 23.332 11.3022C23.4467 10.4688 23.3114 9.96884 23.1967 9.47951C23.082 8.99018 22.9467 8.64618 22.9467 8.64618C22.9467 8.64618 22.332 8.58351 21.8114 8.76084C21.2907 8.93818 20.8427 9.07351 20.1967 9.45884C19.8947 9.63884 19.5907 9.83618 19.35 9.99618C18.3214 9.71084 17.19 9.56418 16 9.56418C14.7994 9.56418 13.658 9.71151 12.622 9.99884C12.3807 9.83818 12.0747 9.63951 11.7707 9.45818C11.1247 9.07284 10.6767 8.93751 10.156 8.76018C9.63536 8.58284 9.02069 8.64551 9.02069 8.64551C9.02069 8.64551 8.88536 8.98951 8.77069 9.47885C8.65602 9.96818 8.52069 10.4682 8.63536 11.3015C8.68669 11.6762 8.79069 11.9722 8.89002 12.1902C8.01669 13.1855 7.50469 14.4548 7.50469 15.9928C7.50469 19.9815 9.65936 21.8022 13.5854 22.2828C13.1274 22.7668 12.82 23.3868 12.7167 24.0768C12.4587 24.1902 12.1614 24.2968 11.8754 24.3395C11.1394 24.4508 10.3614 24.3395 9.98669 24.1175C9.61202 23.8955 9.16736 23.3955 8.83402 22.9088C8.55269 22.4982 8.14669 22.0215 7.77869 21.8535C7.29269 21.6315 6.82002 21.5482 6.55669 21.5895C6.29269 21.6315 6.16802 21.8255 6.22336 21.9648C6.27869 22.1035 6.54269 22.3122 6.82069 22.4648C7.09869 22.6175 7.52936 23.0342 7.77936 23.4368C8.05802 23.8862 8.11269 24.1455 8.34869 24.6588C8.51469 25.0202 9.08269 25.4715 9.48736 25.7142C9.83469 25.9228 10.5287 26.0415 11.2794 26.0755C11.5387 26.0875 12.1514 26.0115 12.668 25.9382V28.4382C12.668 28.8642 12.278 29.1882 11.874 29.1135C13.1707 29.5495 14.5554 29.7708 16 29.7708C17.444 29.7708 18.8287 29.5495 20.1267 29.1148C19.7234 29.1888 19.3334 28.8648 19.3334 28.4388V24.5695C19.3334 23.6835 18.982 22.8828 18.418 22.2862C22.3154 21.8182 24.496 20.0408 24.496 15.9935ZM7.49269 22.2555C7.39002 22.2028 7.33469 22.1055 7.36936 22.0368C7.40402 21.9682 7.51602 21.9555 7.61869 22.0082C7.72136 22.0608 7.77669 22.1582 7.74202 22.2268C7.70736 22.2955 7.59536 22.3082 7.49269 22.2555ZM8.30069 22.7588C8.24669 22.8175 8.13069 22.7988 8.04136 22.7175C7.95202 22.6362 7.92336 22.5222 7.97736 22.4635C8.03136 22.4048 8.14736 22.4235 8.23669 22.5048C8.32602 22.5862 8.35469 22.7002 8.30069 22.7588ZM8.80336 23.5922C8.73536 23.6402 8.62002 23.5955 8.54602 23.4922C8.47202 23.3888 8.46736 23.2655 8.53536 23.2175C8.60336 23.1695 8.71869 23.2142 8.79269 23.3175C8.86602 23.4208 8.87136 23.5442 8.80336 23.5922ZM9.52536 24.2195C9.47936 24.2942 9.34869 24.2975 9.23402 24.2275C9.11936 24.1575 9.06336 24.0402 9.10936 23.9655C9.15536 23.8908 9.28602 23.8875 9.40069 23.9575C9.51536 24.0275 9.57136 24.1448 9.52536 24.2195ZM10.208 24.8335C10.066 24.8162 9.96069 24.7275 9.97269 24.6355C9.98402 24.5435 10.1087 24.4835 10.25 24.5008C10.392 24.5182 10.4974 24.6068 10.4854 24.6988C10.474 24.7902 10.35 24.8508 10.208 24.8335ZM11.3087 24.9928C11.1574 24.9842 11.0394 24.8975 11.0454 24.8002C11.0514 24.7028 11.1787 24.6302 11.33 24.6388C11.4814 24.6475 11.5994 24.7342 11.5934 24.8315C11.5874 24.9295 11.46 25.0015 11.3087 24.9928ZM12.3474 24.8888C12.186 24.8888 12.0554 24.8048 12.0554 24.7015C12.0554 24.5982 12.186 24.5142 12.3474 24.5142C12.5087 24.5142 12.6394 24.5982 12.6394 24.7015C12.6394 24.8048 12.508 24.8888 12.3474 24.8888Z" fill="white"/>
</svg>
