<svg width="33" height="32" viewBox="0 0 33 32" fill="none" xmlns="http://www.w3.org/2000/svg">
<path d="M29.1282 17.2666L25.4215 19.12C25.1682 19.2533 24.8615 19.2 24.6482 19L22.1548 16.5066C21.8882 16.24 21.8882 15.8266 22.1548 15.56L24.6882 13.0266C24.8882 12.8266 25.2082 12.7733 25.4615 12.9066L29.1282 14.7466C30.1815 15.2533 30.1815 16.7466 29.1282 17.2666Z" fill="#ECD333"/>
<path d="M22.328 11.32C22.7414 11.52 22.8214 12.0667 22.5014 12.3867L20.2747 14.6133L19.328 15.56C19.0614 15.8267 18.648 15.8267 18.3814 15.56L8.86136 6.03998C8.32802 5.50665 8.95469 4.64 9.63469 4.97333L22.328 11.32Z" fill="#1BBB1E"/>
<path d="M3.26147 26.8667V4.64003C3.26147 4.05336 3.96814 3.74667 4.39481 4.16001L16.0881 15.5067C16.3681 15.7734 16.3548 16.2133 16.0748 16.48L4.38147 27.36C3.95481 27.76 3.26147 27.4533 3.26147 26.8667Z" fill="#518EFF"/>
<path d="M22.288 20.6933L9.76799 26.96C9.08799 27.2933 8.46132 26.4267 8.99466 25.8934L18.3947 16.4933C18.6613 16.2267 19.0747 16.2267 19.3413 16.4933L22.4747 19.6267C22.7813 19.9467 22.688 20.4933 22.288 20.6933Z" fill="#FF5512"/>
</svg>
