<svg width="32" height="33" viewBox="0 0 32 33" fill="none" xmlns="http://www.w3.org/2000/svg">
<path d="M8.99181 3.11221C7.1958 2.10954 5.0698 2.95621 4.2998 4.65288L16.0838 16.4375L22.0931 10.4282L8.99181 3.11221Z" fill="url(#paint0_linear_137_802)"/>
<path d="M22.0931 22.4468L16.0838 16.4375L4.2998 28.2222C5.07047 29.9195 7.19647 30.7655 8.99181 29.7635L22.0931 22.4468Z" fill="url(#paint1_linear_137_802)"/>
<path d="M27.6126 19.3662C28.7593 18.7262 29.3327 17.5822 29.3333 16.4376C29.3327 15.2929 28.7593 14.1482 27.6126 13.5089L22.0933 10.4282L16.084 16.4376L22.0933 22.4469L27.6126 19.3662Z" fill="url(#paint2_linear_137_802)"/>
<path d="M4.3 4.65283C4.112 5.0695 4 5.53883 4 6.04283V26.8288C4 27.3362 4.10933 27.8042 4.3 28.2222L16.0827 16.4355L4.3 4.65283Z" fill="url(#paint3_linear_137_802)"/>
<defs>
<linearGradient id="paint0_linear_137_802" x1="12.0679" y1="2.60034" x2="16.8647" y2="23.5976" gradientUnits="userSpaceOnUse">
<stop stop-color="#35AB4A"/>
<stop offset="0.2968" stop-color="#31A145"/>
<stop offset="0.7979" stop-color="#288739"/>
<stop offset="1" stop-color="#237A33"/>
</linearGradient>
<linearGradient id="paint1_linear_137_802" x1="12.7715" y1="16.3452" x2="14.1291" y2="45.0581" gradientUnits="userSpaceOnUse">
<stop stop-color="#F14E5D"/>
<stop offset="0.4986" stop-color="#EA3D4F"/>
<stop offset="1" stop-color="#E12138"/>
</linearGradient>
<linearGradient id="paint2_linear_137_802" x1="21.9619" y1="10.3706" x2="24.3603" y2="29.5125" gradientUnits="userSpaceOnUse">
<stop stop-color="#FFD844"/>
<stop offset="0.519" stop-color="#FFC63F"/>
<stop offset="1" stop-color="#FFB03A"/>
</linearGradient>
<linearGradient id="paint3_linear_137_802" x1="9.2354" y1="4.3717" x2="10.3815" y2="28.9784" gradientUnits="userSpaceOnUse">
<stop offset="0.0027" stop-color="#0090E6"/>
<stop offset="1" stop-color="#0065A0"/>
</linearGradient>
</defs>
</svg>
