<svg width="24" height="32" viewBox="0 0 24 32" fill="none" xmlns="http://www.w3.org/2000/svg">
<path d="M11.8893 5.92928C10.4107 6.96923 8.73485 8.14798 7.83696 10.0981C6.27736 13.5001 11.0283 17.2113 11.2314 17.3676C11.2786 17.404 11.335 17.4221 11.3914 17.4221C11.4512 17.4221 11.5111 17.4016 11.5598 17.3609C11.6541 17.282 11.6808 17.148 11.6242 17.0389C11.607 17.0058 9.90164 13.6933 9.96501 11.3168C9.98746 10.4892 11.1458 9.55031 12.372 8.55621C13.4952 7.64574 14.7682 6.61377 15.5132 5.40658C17.1484 2.74933 15.3309 0.136462 15.3123 0.110442C15.2402 0.00909163 15.1069 -0.0277345 14.993 0.0223113C14.8791 0.0724619 14.8161 0.195635 14.8421 0.317235C14.8458 0.334441 15.1992 2.06233 14.2158 3.84247C13.8105 4.57805 12.9202 5.2043 11.8893 5.92928Z" fill="#FF2828"/>
<path d="M18.1189 7.101C18.2232 7.02242 18.2538 6.8791 18.1906 6.76474C18.1275 6.65038 17.9899 6.59991 17.8678 6.64629C17.6166 6.74176 11.7168 9.01585 11.7168 11.7638C11.7168 13.6578 12.5259 14.6585 13.1167 15.3893C13.3485 15.6758 13.5486 15.9233 13.6144 16.1346C13.8 16.7436 13.3603 17.8442 13.1755 18.2168C13.1222 18.324 13.1483 18.4538 13.2389 18.5321C13.2879 18.5744 13.3491 18.5958 13.4104 18.5958C13.4625 18.5958 13.5149 18.5803 13.5601 18.5488C13.6616 18.4782 16.0393 16.7971 15.6128 14.7716C15.454 14.0019 15.0756 13.4393 14.7418 12.9429C14.2246 12.174 13.8511 11.6184 14.4178 10.5925C15.0819 9.39597 18.0886 7.12377 18.1189 7.101Z" fill="#FF5A5A"/>
<path d="M2.76146 18.6395C2.66032 18.9422 2.70805 19.2428 2.89942 19.5086C3.539 20.3964 5.80438 20.8854 9.27863 20.8854C9.27884 20.8854 9.27905 20.8854 9.27905 20.8854C9.74981 20.8854 10.2468 20.8762 10.7559 20.8579C16.3105 20.659 18.3708 18.9286 18.4558 18.855C18.5484 18.7749 18.5732 18.6413 18.5156 18.5333C18.458 18.4253 18.3338 18.3711 18.2151 18.4037C16.2589 18.9378 12.6059 19.1274 10.0721 19.1274C7.23693 19.1274 5.79305 18.9232 5.43959 18.7725C5.62099 18.5234 6.73973 18.0787 8.126 17.806C8.25851 17.78 8.34958 17.6576 8.33647 17.5232C8.32335 17.3888 8.21046 17.2863 8.07543 17.2863C7.26274 17.2864 3.18742 17.3517 2.76146 18.6395Z" fill="#5D65FF"/>
<path d="M21.3485 16.8574C20.2028 16.8574 19.1164 17.4315 19.0707 17.456C18.9647 17.5127 18.911 17.6342 18.9401 17.7509C18.9692 17.8675 19.074 17.9494 19.1943 17.9495C19.2186 17.9496 21.6381 17.9693 21.8573 19.3517C22.0514 20.5443 19.568 22.4767 18.5947 23.1207C18.4895 23.1903 18.4487 23.3248 18.4975 23.4409C18.539 23.5398 18.6354 23.6017 18.7392 23.6017C18.7574 23.6017 18.7758 23.5999 18.794 23.5959C19.025 23.5466 24.4444 22.3524 23.8714 19.197C23.5218 17.2632 22.3064 16.8574 21.3485 16.8574Z" fill="#8E94FF"/>
<path d="M17.6321 22.7346C17.651 22.6335 17.6089 22.5307 17.5248 22.4717L16.2254 21.5615C16.162 21.5172 16.0819 21.5032 16.0076 21.5229C15.994 21.5265 14.6351 21.8836 12.6623 22.1027C11.8793 22.1905 11.0023 22.2369 10.1259 22.2369C8.15353 22.2369 6.86388 22.0051 6.67608 21.8352C6.65121 21.7874 6.65908 21.7657 6.66349 21.7536C6.69758 21.6587 6.88046 21.5459 6.99838 21.5013C7.12859 21.4532 7.19878 21.3117 7.15828 21.1789C7.11788 21.0461 6.98097 20.9678 6.84583 21.0003C5.54234 21.3149 4.90496 21.7548 4.95133 22.3077C5.03369 23.288 7.30443 23.7911 9.22411 23.9243C9.50015 23.9432 9.79874 23.9528 10.1113 23.9528C10.1115 23.9528 10.1116 23.9528 10.1118 23.9528C13.3039 23.9528 17.3961 22.9513 17.4371 22.9411C17.5369 22.9164 17.6131 22.8358 17.6321 22.7346Z" fill="#8E94FF"/>
<path d="M7.83541 24.8387C7.93382 24.7746 7.97747 24.653 7.94253 24.541C7.90769 24.4289 7.80288 24.3554 7.68516 24.3568C7.51048 24.3614 5.97585 24.4307 5.86841 25.4078C5.83588 25.6998 5.9195 25.9665 6.11706 26.2006C6.66809 26.8536 8.1554 27.2417 10.6634 27.3872C10.9601 27.4049 11.2614 27.4138 11.5592 27.4138C14.7477 27.4138 16.895 26.4155 16.985 26.373C17.0721 26.3318 17.1296 26.2462 17.1348 26.1499C17.1399 26.0537 17.0919 25.9623 17.0096 25.912L15.3674 24.9095C15.3105 24.8748 15.2423 24.8633 15.1772 24.8766C15.1668 24.8788 14.1242 25.095 12.5506 25.3088C12.2529 25.3491 11.88 25.3697 11.4425 25.3697C9.8706 25.3697 8.12225 25.1129 7.78693 24.9448C7.78211 24.9132 7.7883 24.8733 7.83541 24.8387Z" fill="#8E94FF"/>
<path d="M10.0733 30.428C17.3766 30.4218 21.2964 29.123 22.0515 28.3057C22.3189 28.0164 22.3477 27.7427 22.325 27.5639C22.2688 27.1239 21.8681 26.8546 21.8226 26.8253C21.713 26.7548 21.5659 26.7733 21.4804 26.8719C21.3951 26.9706 21.3931 27.1147 21.4787 27.2132C21.5248 27.2725 21.5514 27.3716 21.4167 27.5064C21.1148 27.7884 18.0701 28.6442 13.0007 28.9012C12.3063 28.9374 11.5779 28.9557 10.8359 28.9558C6.297 28.9558 2.9752 28.3341 2.53916 27.9717C2.70734 27.7303 3.88221 27.3444 5.13178 27.1263C5.27258 27.1018 5.36774 26.969 5.34592 26.8278C5.3241 26.6866 5.19389 26.5894 5.05162 26.6079C5.01637 26.6126 4.89687 26.62 4.75828 26.6284C2.69654 26.7543 0.313961 27.0349 0.189634 28.0971C0.151864 28.4209 0.248073 28.7147 0.475639 28.9705C1.03244 29.5961 2.63296 30.4279 10.073 30.4279C10.0732 30.428 10.0733 30.428 10.0733 30.428Z" fill="#8E94FF"/>
<path d="M23.486 28.536C23.3827 28.4883 23.2608 28.5124 23.1837 28.5955C23.1729 28.607 22.0749 29.7552 18.7735 30.4294C17.5096 30.6827 15.1371 30.8111 11.7219 30.8111C8.3003 30.8111 5.0446 30.6765 5.01207 30.6752C4.8761 30.6686 4.75975 30.7674 4.74128 30.9013C4.72271 31.0351 4.80895 31.1611 4.94031 31.1924C4.9742 31.2005 8.38623 31.9999 13.0515 31.9999C15.2891 31.9999 17.4664 31.818 19.5232 31.4594C23.3583 30.7871 23.6268 28.8855 23.6363 28.8049C23.6497 28.6922 23.589 28.5837 23.486 28.536Z" fill="#8E94FF"/>
</svg>
