<svg width="30" height="32" viewBox="0 0 30 32" fill="none" xmlns="http://www.w3.org/2000/svg">
<path d="M9.31916 19.1944C9.2617 19.0945 9.22195 18.9854 9.20166 18.8719C9.22416 18.9849 9.26416 19.0937 9.31916 19.1944ZM9.46366 19.3727C9.51916 19.4277 9.58166 19.4754 9.65091 19.5097C9.58172 19.4743 9.51867 19.4281 9.46416 19.3727H9.46366Z" fill="#083042"/>
<path d="M15.0982 25.4917H15.0632C14.7126 25.4932 14.3674 25.4058 14.0597 25.2377L7.01418 21.3002C6.59843 21.0672 6.34268 20.6352 6.34268 20.1685V12.157C6.34268 11.8137 6.40493 11.4845 6.55018 11.1965L1.04118 8.13049C0.81293 8.61049 0.69543 9.15249 0.70218 9.72199V22.9537C0.706337 23.3364 0.811619 23.7112 1.00735 24.04C1.20308 24.3689 1.4823 24.6401 1.81668 24.8262L13.4369 31.3292C13.9494 31.6172 14.5237 31.7545 15.0912 31.7545V31.7477C15.1049 30.9177 15.0982 27.5905 15.0982 25.4917Z" fill="#105676"/>
<path d="M20.6276 12.65L20.5859 12.5885C20.5514 12.5405 20.5171 12.4992 20.4826 12.4515C20.5171 12.4925 20.5514 12.5407 20.5859 12.5885C20.6028 12.6069 20.6169 12.6274 20.6276 12.65ZM14.8281 9.43998C14.8631 9.43998 14.8909 9.43323 14.9256 9.43323C14.8909 9.43998 14.8561 9.43998 14.8281 9.43998Z" fill="#3DDB85"/>
<path d="M6.54326 11.1892C6.69769 10.8691 6.94343 10.6019 7.24951 10.4212L13.8795 6.54547C14.1832 6.36712 14.5283 6.27138 14.8805 6.26779C15.2327 6.26419 15.5797 6.35286 15.887 6.52497L22.5865 10.2772C22.8872 10.4451 23.1453 10.6797 23.341 10.963L28.7603 7.75997C28.438 7.29588 28.0144 6.91117 27.5215 6.63497L16.4543 0.44097C15.9477 0.15792 15.3759 0.0121762 14.7956 0.0181839C14.2153 0.0241915 13.6466 0.181742 13.146 0.47522L2.20401 6.86797C1.69894 7.16299 1.29392 7.60267 1.04126 8.13022L6.54326 11.1892Z" fill="#3DDC84"/>
<path d="M9.33202 12.7329C9.34602 12.7054 9.35977 12.6779 9.37402 12.6579C9.35977 12.6852 9.34627 12.7054 9.33202 12.7329Z" fill="#3DDB85"/>
<path d="M28.7531 7.75995L23.3338 10.9629C23.5413 11.2647 23.6661 11.6212 23.6726 11.9852V19.6127C23.6768 19.9621 23.588 20.3062 23.4154 20.61C23.2427 20.9137 22.9924 21.1661 22.6901 21.3412L16.0596 25.2174C15.7668 25.3879 15.436 25.4822 15.0973 25.4917C15.1046 27.584 15.1046 30.9109 15.0906 31.7409V31.7477C15.6718 31.7413 16.2415 31.5853 16.7448 31.2947L27.6871 24.8949C28.7046 24.2982 29.3276 23.2142 29.3136 22.0412V9.4542C29.3066 8.8437 29.0991 8.2607 28.7531 7.75995Z" fill="#4285F4"/>
<path d="M20.7534 18.7967C20.7464 18.8107 20.7464 18.8245 20.7394 18.8387C20.7471 18.826 20.7519 18.8116 20.7534 18.7967ZM20.6839 12.74C20.6696 12.7055 20.6489 12.678 20.6281 12.6437C20.6489 12.678 20.6699 12.7125 20.6839 12.74ZM15.7144 22.144L20.1576 19.5445L15.7144 22.1445V22.144ZM20.6976 18.9545C20.6836 18.989 20.6629 19.0232 20.6486 19.0577C20.6629 19.0165 20.6766 18.982 20.6976 18.9545Z" fill="#4285F4"/>
<path d="M9.31217 12.7944C9.25576 12.9277 9.22075 13.069 9.20842 13.2132C9.20142 13.2677 9.20142 13.3227 9.20142 13.3847V18.7554C9.20142 18.7964 9.20142 18.8309 9.20842 18.8722C9.22242 18.9884 9.26392 19.0984 9.32592 19.1947C9.36767 19.2632 9.41592 19.3177 9.46467 19.3727C9.52017 19.4277 9.58217 19.4754 9.65117 19.5102L14.3717 22.1509C14.5771 22.2643 14.8081 22.3233 15.0427 22.3222H15.0914C15.3115 22.3147 15.5259 22.251 15.7144 22.1372L20.1577 19.5374C20.1854 19.5237 20.2062 19.5029 20.2339 19.4894C20.2824 19.4552 20.3309 19.4207 20.3724 19.3794C20.4376 19.3204 20.4975 19.2564 20.5522 19.1874C20.5867 19.1394 20.6214 19.0917 20.6492 19.0434C20.6697 19.0094 20.6839 18.9749 20.6974 18.9404C20.7114 18.9067 20.7324 18.8652 20.7462 18.8242C20.7529 18.8102 20.7529 18.7964 20.7599 18.7829C20.8018 18.6497 20.8228 18.5108 20.8222 18.3712V13.2609C20.8222 13.1652 20.8082 13.0759 20.7877 12.9869C20.7739 12.9249 20.7527 12.8699 20.7322 12.8149L20.6907 12.7329C20.6769 12.6984 20.6557 12.6712 20.6352 12.6367L20.5937 12.5752C20.5592 12.5269 20.5244 12.4859 20.4899 12.4379C20.3772 12.3065 20.241 12.1972 20.0884 12.1154L15.5969 9.59844C15.5195 9.55466 15.4383 9.51785 15.3544 9.48844C15.2418 9.45444 15.1256 9.43379 15.0082 9.42694H14.9182C14.8839 9.42694 14.8562 9.42694 14.8217 9.43344C14.7421 9.44057 14.6634 9.45437 14.5862 9.47469C14.5724 9.48144 14.5587 9.48144 14.5447 9.48869C14.4409 9.51619 14.3439 9.56394 14.2469 9.61869L9.80367 12.2187C9.6747 12.2945 9.56176 12.3947 9.47117 12.5137C9.43692 12.5617 9.40217 12.6097 9.37442 12.6577C9.36067 12.6852 9.34692 12.7057 9.33292 12.7332L9.31217 12.7944Z" fill="#D6F0FF"/>
<path d="M15.0907 22.322H15.0422C14.8074 22.3232 14.5763 22.2643 14.3707 22.151L9.6507 19.51C9.58286 19.4722 9.52003 19.4261 9.46371 19.3727C9.40957 19.3198 9.36297 19.2598 9.3252 19.1942C9.26774 19.0943 9.22799 18.9852 9.2077 18.8717C9.20045 18.831 9.20045 18.7965 9.20045 18.7555V13.3842C9.20045 13.3295 9.20045 13.268 9.2077 13.2127C9.22095 13.069 9.2557 12.9277 9.31145 12.7942L8.0377 12.0195L6.54271 11.1895C6.40421 11.4775 6.33521 11.8065 6.33521 12.1497V20.1615C6.33929 20.3922 6.40331 20.6178 6.521 20.8163C6.63869 21.0148 6.80599 21.1792 7.00645 21.2935L14.0457 25.2375C14.3521 25.4087 14.6982 25.4963 15.0492 25.4915H15.0842C15.0842 24.4692 15.077 23.7422 15.077 23.7422L15.0907 22.322Z" fill="#083042"/>
<path d="M15.0907 22.322H15.0422C14.8074 22.3232 14.5763 22.2643 14.3707 22.151L9.6507 19.51C9.58286 19.4722 9.52003 19.4261 9.46371 19.3727C9.40957 19.3198 9.36297 19.2598 9.3252 19.1942C9.26774 19.0943 9.22799 18.9852 9.2077 18.8717C9.20045 18.831 9.20045 18.7965 9.20045 18.7555V13.3842C9.20045 13.3295 9.20045 13.268 9.2077 13.2127C9.22095 13.069 9.2557 12.9277 9.31145 12.7942L8.0377 12.0195L6.54271 11.1895C6.40421 11.4775 6.33521 11.8065 6.33521 12.1497V20.1615C6.33929 20.3922 6.40331 20.6178 6.521 20.8163C6.63869 21.0148 6.80599 21.1792 7.00645 21.2935L14.0457 25.2375C14.3521 25.4087 14.6982 25.4963 15.0492 25.4915H15.0842C15.0842 24.4692 15.077 23.7422 15.077 23.7422L15.0907 22.322Z" fill="#041619"/>
<path d="M22.5791 10.2772L15.8794 6.52473C15.5721 6.35271 15.2251 6.26411 14.873 6.26775C14.5209 6.27139 14.1758 6.36714 13.8721 6.54548L7.24214 10.4215C6.93448 10.6004 6.68818 10.8682 6.53564 11.1897L8.03815 12.0197L9.31139 12.7945L9.33189 12.733C9.34589 12.7052 9.35964 12.678 9.37339 12.6575C9.40114 12.6095 9.4359 12.5615 9.4704 12.5135C9.5604 12.3967 9.67114 12.301 9.80289 12.2185L14.2459 9.61848C14.3409 9.56515 14.4401 9.52182 14.5436 9.48848C14.5576 9.48173 14.5714 9.48173 14.5851 9.47448C14.6623 9.45348 14.7407 9.43982 14.8204 9.43348C14.8549 9.43348 14.8826 9.42648 14.9174 9.42648H15.0074C15.1246 9.43398 15.2406 9.45423 15.3534 9.48798C15.4387 9.51498 15.5195 9.55173 15.5956 9.59823L20.0871 12.1157C20.2387 12.1992 20.3747 12.3082 20.4891 12.438C20.5234 12.479 20.5584 12.5272 20.5926 12.575L20.6344 12.6365L21.7831 11.8755L23.3404 10.9495C23.1396 10.6817 22.8836 10.4417 22.5791 10.2772Z" fill="#3DDB85"/>
<path d="M22.5791 10.2772L15.8794 6.52473C15.5721 6.35271 15.2251 6.26411 14.873 6.26775C14.5209 6.27139 14.1758 6.36714 13.8721 6.54548L7.24214 10.4215C6.93448 10.6004 6.68818 10.8682 6.53564 11.1897L8.03815 12.0197L9.31139 12.7945L9.33189 12.733C9.34589 12.7052 9.35964 12.678 9.37339 12.6575C9.40114 12.6095 9.4359 12.5615 9.4704 12.5135C9.5604 12.3967 9.67114 12.301 9.80289 12.2185L14.2459 9.61848C14.3409 9.56515 14.4401 9.52182 14.5436 9.48848C14.5576 9.48173 14.5714 9.48173 14.5851 9.47448C14.6623 9.45348 14.7407 9.43982 14.8204 9.43348C14.8549 9.43348 14.8826 9.42648 14.9174 9.42648H15.0074C15.1246 9.43398 15.2406 9.45423 15.3534 9.48798C15.4387 9.51498 15.5195 9.55173 15.5956 9.59823L20.0871 12.1157C20.2387 12.1992 20.3747 12.3082 20.4891 12.438C20.5234 12.479 20.5584 12.5272 20.5926 12.575L20.6344 12.6365L21.7831 11.8755L23.3404 10.9495C23.1396 10.6817 22.8836 10.4417 22.5791 10.2772Z" fill="#37BF6E"/>
<path d="M20.6277 12.6504C20.6485 12.6844 20.6625 12.7119 20.683 12.7464L20.7247 12.8287C20.7829 12.9702 20.8134 13.1215 20.8147 13.2744V18.3849C20.8153 18.5245 20.7942 18.6633 20.7522 18.7964C20.7455 18.8099 20.7455 18.8239 20.7385 18.8374C20.7253 18.8776 20.7092 18.9167 20.6902 18.9544C20.676 18.9882 20.6552 19.0227 20.6415 19.0569C20.614 19.1052 20.5792 19.1529 20.5445 19.2012C20.4903 19.2702 20.4302 19.3344 20.3647 19.3929C20.3232 19.4342 20.2747 19.4684 20.2262 19.5029C20.1985 19.5164 20.178 19.5372 20.1502 19.5509L15.7067 22.1504C15.5157 22.2583 15.3027 22.3217 15.0837 22.3359V23.7557C15.0837 23.7557 15.0837 24.4829 15.0907 25.5049C15.4299 25.4988 15.7616 25.4042 16.053 25.2307L22.683 21.3547C23.2992 20.9914 23.673 20.3327 23.666 19.6264V11.9987C23.6592 11.6282 23.5347 11.2782 23.3272 10.9764L21.7695 11.9027L20.6277 12.6504Z" fill="#4285F4"/>
<path d="M20.6277 12.6504C20.6485 12.6844 20.6625 12.7119 20.683 12.7464L20.7247 12.8287C20.7829 12.9702 20.8134 13.1215 20.8147 13.2744V18.3849C20.8153 18.5245 20.7942 18.6633 20.7522 18.7964C20.7455 18.8099 20.7455 18.8239 20.7385 18.8374C20.7253 18.8776 20.7092 18.9167 20.6902 18.9544C20.676 18.9882 20.6552 19.0227 20.6415 19.0569C20.614 19.1052 20.5792 19.1529 20.5445 19.2012C20.4903 19.2702 20.4302 19.3344 20.3647 19.3929C20.3232 19.4342 20.2747 19.4684 20.2262 19.5029C20.1985 19.5164 20.178 19.5372 20.1502 19.5509L15.7067 22.1504C15.5157 22.2583 15.3027 22.3217 15.0837 22.3359V23.7557C15.0837 23.7557 15.0837 24.4829 15.0907 25.5049C15.4299 25.4988 15.7616 25.4042 16.053 25.2307L22.683 21.3547C23.2992 20.9914 23.673 20.3327 23.666 19.6264V11.9987C23.6592 11.6282 23.5347 11.2782 23.3272 10.9764L21.7695 11.9027L20.6277 12.6504Z" fill="#3870B2"/>
<path d="M14.5515 9.49548C14.4475 9.52298 14.3505 9.57098 14.254 9.62548L9.81055 12.2255L14.2535 9.62598C14.3459 9.56849 14.4461 9.5247 14.551 9.49598L14.5515 9.49548Z" fill="#D6F0FF"/>
<path opacity="0.1" d="M14.5515 9.49548C14.4475 9.52298 14.3505 9.57098 14.254 9.62548L9.81055 12.2255L14.2535 9.62598C14.3459 9.56849 14.4461 9.5247 14.551 9.49598L14.5515 9.49548Z" fill="black"/>
<path d="M20.7246 12.8222C20.7459 12.8782 20.7642 12.9353 20.7796 12.9932C20.7659 12.9385 20.7446 12.8837 20.7241 12.8222H20.7246Z" fill="#D6F0FF"/>
<path opacity="0.1" d="M20.7246 12.8222C20.7459 12.8782 20.7642 12.9353 20.7796 12.9932C20.7659 12.9385 20.7446 12.8837 20.7241 12.8222H20.7246Z" fill="black"/>
</svg>
