<svg width="33" height="32" viewBox="0 0 33 32" fill="none" xmlns="http://www.w3.org/2000/svg">
<path d="M30.2325 0H2.95695C2.33045 0 1.72961 0.248877 1.28661 0.691879C0.843603 1.13488 0.594727 1.73572 0.594727 2.36222V29.6378C0.594727 30.2643 0.843603 30.8651 1.28661 31.3081C1.72961 31.7511 2.33045 32 2.95695 32H30.2325C30.859 32 31.4598 31.7511 31.9029 31.3081C32.3459 30.8651 32.5947 30.2643 32.5947 29.6378V2.36222C32.5947 1.73572 32.3459 1.13488 31.9029 0.691879C31.4598 0.248877 30.859 0 30.2325 0ZM10.1325 27.26H5.32139V11.9778H10.1325V27.26ZM7.72362 9.86C7.17788 9.85693 6.64528 9.69226 6.19304 9.38678C5.7408 9.08131 5.38918 8.64871 5.18256 8.14359C4.97595 7.63846 4.92359 7.08346 5.0321 6.54861C5.14061 6.01376 5.40513 5.52304 5.79227 5.13838C6.1794 4.75372 6.67181 4.49236 7.20735 4.38728C7.74288 4.28221 8.29754 4.33812 8.80133 4.54798C9.30511 4.75784 9.73545 5.11222 10.038 5.56642C10.3406 6.02061 10.5018 6.55426 10.5014 7.1C10.5065 7.46538 10.4381 7.82805 10.3001 8.16641C10.1621 8.50476 9.95737 8.81187 9.69815 9.06942C9.43894 9.32698 9.13053 9.52971 8.79129 9.66553C8.45206 9.80136 8.08895 9.86749 7.72362 9.86ZM27.8658 27.2733H23.057V18.9244C23.057 16.4622 22.0103 15.7022 20.6592 15.7022C19.2325 15.7022 17.8325 16.7778 17.8325 18.9867V27.2733H13.0214V11.9889H17.6481V14.1067H17.7103C18.1747 13.1667 19.8014 11.56 22.2836 11.56C24.9681 11.56 27.8681 13.1533 27.8681 17.82L27.8658 27.2733Z" fill="#518EFF"/>
</svg>
