<svg width="21" height="20" viewBox="0 0 21 20" fill="none" xmlns="http://www.w3.org/2000/svg">
<path d="M20.5657 16.33C20.5657 16.69 20.4857 17.06 20.3157 17.42C20.1457 17.78 19.9257 18.12 19.6357 18.44C19.1457 18.98 18.6057 19.37 17.9957 19.62C17.3957 19.87 16.7457 20 16.0457 20C15.0257 20 13.9357 19.76 12.7857 19.27C11.6357 18.78 10.4857 18.12 9.34571 17.29C8.19571 16.45 7.10571 15.52 6.06571 14.49C5.03571 13.45 4.10571 12.36 3.27571 11.22C2.45571 10.08 1.79571 8.94 1.3157 7.81C0.835704 6.67 0.595703 5.58 0.595703 4.54C0.595703 3.86 0.715703 3.21 0.955703 2.61C1.1957 2 1.5757 1.44 2.10571 0.94C2.74571 0.31 3.44571 0 4.18571 0C4.46571 0 4.74571 0.0600001 4.99571 0.18C5.25571 0.3 5.48571 0.48 5.66571 0.74L7.98571 4.01C8.16571 4.26 8.29571 4.49 8.38571 4.71C8.47571 4.92 8.52571 5.13 8.52571 5.32C8.52571 5.56 8.45571 5.8 8.31571 6.03C8.18571 6.26 7.99571 6.5 7.75571 6.74L6.99571 7.53C6.88571 7.64 6.83571 7.77 6.83571 7.93C6.83571 8.01 6.84571 8.08 6.86571 8.16C6.89571 8.24 6.92571 8.3 6.94571 8.36C7.12571 8.69 7.43571 9.12 7.87571 9.64C8.32571 10.16 8.80571 10.69 9.32571 11.22C9.86571 11.75 10.3857 12.24 10.9157 12.69C11.4357 13.13 11.8657 13.43 12.2057 13.61C12.2557 13.63 12.3157 13.66 12.3857 13.69C12.4657 13.72 12.5457 13.73 12.6357 13.73C12.8057 13.73 12.9357 13.67 13.0457 13.56L13.8057 12.81C14.0557 12.56 14.2957 12.37 14.5257 12.25C14.7557 12.11 14.9857 12.04 15.2357 12.04C15.4257 12.04 15.6257 12.08 15.8457 12.17C16.0657 12.26 16.2957 12.39 16.5457 12.56L19.8557 14.91C20.1157 15.09 20.2957 15.3 20.4057 15.55C20.5057 15.8 20.5657 16.05 20.5657 16.33Z" fill="#1BBB1E"/>
</svg>
