<svg width="33" height="32" viewBox="0 0 33 32" fill="none" xmlns="http://www.w3.org/2000/svg">
<g clip-path="url(#clip0_367_202)">
<path d="M16.385 0C8.261 0 8.768 3.523 8.768 3.523L8.778 7.173H16.53V8.268H5.697C5.697 8.268 0.5 7.678 0.5 15.876C0.5 24.072 5.037 23.782 5.037 23.782H7.745V19.978C7.745 19.978 7.599 15.441 12.21 15.441H19.898C19.898 15.441 24.218 15.511 24.218 11.266V4.247C24.218 4.247 24.874 0 16.385 0ZM12.11 2.454C12.881 2.454 13.505 3.078 13.505 3.849C13.505 4.62 12.881 5.244 12.11 5.244C11.9267 5.24426 11.7452 5.20836 11.5758 5.13835C11.4065 5.06834 11.2526 4.96559 11.123 4.836C10.9934 4.70641 10.8907 4.55252 10.8207 4.38315C10.7506 4.21379 10.7147 4.03227 10.715 3.849C10.715 3.078 11.339 2.454 12.11 2.454Z" fill="url(#paint0_linear_367_202)"/>
<path d="M16.615 31.833C24.739 31.833 24.232 28.31 24.232 28.31L24.222 24.66H16.47V23.565H27.302C27.302 23.565 32.5 24.155 32.5 15.958C32.5 7.761 27.963 8.052 27.963 8.052H25.255V11.855C25.255 11.855 25.401 16.392 20.79 16.392H13.102C13.102 16.392 8.78202 16.322 8.78202 20.567V27.586C8.78202 27.586 8.12602 31.833 16.615 31.833ZM20.89 29.379C20.7068 29.3793 20.5252 29.3434 20.3559 29.2733C20.1865 29.2033 20.0326 29.1006 19.903 28.971C19.7734 28.8414 19.6707 28.6875 19.6007 28.5182C19.5307 28.3488 19.4948 28.1673 19.495 27.984C19.495 27.214 20.119 26.59 20.89 26.59C21.661 26.59 22.285 27.213 22.285 27.984C22.285 28.756 21.661 29.379 20.89 29.379Z" fill="url(#paint1_linear_367_202)"/>
</g>
<defs>
<linearGradient id="paint0_linear_367_202" x1="3.575" y1="2.782" x2="19.398" y2="18.658" gradientUnits="userSpaceOnUse">
<stop stop-color="#387EB8"/>
<stop offset="1" stop-color="#366994"/>
</linearGradient>
<linearGradient id="paint1_linear_367_202" x1="13.309" y1="12.882" x2="30.303" y2="29.163" gradientUnits="userSpaceOnUse">
<stop stop-color="#FFE052"/>
<stop offset="1" stop-color="#FFC331"/>
</linearGradient>
<clipPath id="clip0_367_202">
<rect width="32" height="32" fill="white" transform="translate(0.5)"/>
</clipPath>
</defs>
</svg>
