<svg width="28" height="32" viewBox="0 0 28 32" fill="none" xmlns="http://www.w3.org/2000/svg">
<g clip-path="url(#clip0_367_225)">
<path d="M23.2509 29.0725V20.5239H26.0737V31.9097H0.594727V20.5239H3.41758V29.0725H23.2509Z" fill="#BCBBBB"/>
<path d="M6.53376 19.7132L20.3914 22.6242L20.978 19.8238L7.12033 16.9128L6.53376 19.7132ZM8.36678 13.0807L21.1979 19.0868L22.3711 16.5075L9.53992 10.4646L8.36678 13.0807ZM11.9228 6.74303L22.811 15.8443L24.6074 13.6703L13.7192 4.56905L11.9228 6.74303ZM18.9617 0L16.6887 1.69497L25.1206 13.1176L27.3936 11.4226L18.9617 0ZM6.24048 26.1983H20.3914V23.3611H6.24048V26.1983Z" fill="#F48023"/>
</g>
<defs>
<clipPath id="clip0_367_225">
<rect width="26.8108" height="32" fill="white" transform="translate(0.594727)"/>
</clipPath>
</defs>
</svg>
