<svg width="33" height="32" viewBox="0 0 33 32" fill="none" xmlns="http://www.w3.org/2000/svg">
<circle cx="16.4053" cy="16" r="16" fill="white"/>
<path fill-rule="evenodd" clip-rule="evenodd" d="M22.2012 18.6658C20.9404 18.5953 19.7922 17.9145 19.1222 16.84C19.5205 13.6538 20.6795 12.6633 22.2131 12.6633C23.7467 12.6633 24.9117 13.8567 24.9117 15.6467C24.9117 17.4366 23.7229 18.63 22.2131 18.63M22.2131 10.6705C19.9795 10.5796 18.0017 12.1076 17.5173 14.2982C17.0085 13.2281 16.6236 12.103 16.3701 10.9449H12.5838V15.6586C12.5838 17.371 11.8111 18.6419 10.2953 18.6419C8.7796 18.6419 7.91772 17.377 7.91772 15.6586V10.9449H5.74221V15.6586C5.69283 16.9648 6.14135 18.2408 6.9964 19.2266C7.84078 20.1495 9.04149 20.6608 10.2894 20.6288C12.9107 20.6288 14.7474 18.6061 14.7474 15.7123V12.5261C15.1926 14.2406 15.9285 15.8654 16.9229 17.3292L15.7579 24H17.9691L18.7358 19.2744C18.9897 19.4938 19.2599 19.6932 19.5442 19.871C20.2829 20.3393 21.132 20.6029 22.0051 20.6348H22.2072C23.5195 20.6485 24.7806 20.1238 25.6985 19.1821C26.6164 18.2404 27.1116 16.9634 27.0694 15.6467C27.1 14.3349 26.5993 13.0668 25.6818 12.1322C24.7642 11.1977 23.5083 10.6767 22.2012 10.6884" fill="#14A800"/>
</svg>
