<svg width="29" height="32" viewBox="0 0 29 32" fill="none" xmlns="http://www.w3.org/2000/svg">
<g clip-path="url(#clip0_367_140)">
<path fill-rule="evenodd" clip-rule="evenodd" d="M2.58193 0.0279541C1.18218 0.0279541 0.0480957 1.16254 0.0480957 2.56179V29.4487C0.0480957 30.8484 1.18218 31.9825 2.58193 31.9825H25.4404C26.8391 31.9825 27.9742 30.8484 27.9742 29.4487V10.1698L18.535 0.0279541H2.58193Z" fill="#FC7B24"/>
<path fill-rule="evenodd" clip-rule="evenodd" d="M27.9827 10.2033V10.7026H21.5912C21.5912 10.7026 18.4391 10.0734 18.5305 7.35333C18.5305 7.35333 18.6344 10.2033 21.5288 10.2033H27.9827Z" fill="#FB5C1B"/>
<path opacity="0.5" fill-rule="evenodd" clip-rule="evenodd" d="M18.543 0.039978V7.31139C18.543 8.13836 19.0943 10.2033 21.5912 10.2033H27.9827L18.543 0.039978Z" fill="white"/>
<path d="M9.7025 26.9303C9.59414 26.9303 9.49576 26.8859 9.43234 26.7955L7.57116 24.3136L5.701 26.7955C5.63808 26.8859 5.5397 26.9303 5.43134 26.9303C5.23359 26.9303 5.07129 26.7775 5.07129 26.5708C5.07129 26.4989 5.08977 26.418 5.1437 26.3551L7.08577 23.7928L5.27853 21.3828C5.23359 21.3199 5.20662 21.248 5.20662 21.176C5.20662 21.0048 5.35044 20.816 5.56617 20.816C5.67454 20.816 5.7824 20.8699 5.85381 20.9598L7.57116 23.2704L9.28852 20.9503C9.35094 20.8604 9.45032 20.8155 9.55818 20.8155C9.74694 20.8155 9.92622 20.9683 9.92622 21.1755C9.92622 21.2475 9.90874 21.3194 9.8638 21.3823L8.05656 23.7833L9.99863 26.3546C10.0436 26.4175 10.0621 26.4894 10.0621 26.5618C10.0625 26.7596 9.90075 26.9303 9.7025 26.9303ZM16.921 26.9214C16.7142 26.9214 16.5524 26.7596 16.5524 26.5528V21.9316L14.5385 26.805C14.511 26.8764 14.4386 26.9214 14.3492 26.9214C14.2773 26.9214 14.2059 26.8764 14.1784 26.8045L12.1729 21.9311V26.5523C12.1729 26.7591 12.0111 26.9209 11.7954 26.9209C11.5886 26.9209 11.4268 26.7591 11.4268 26.5523V21.4277C11.4268 21.1041 11.706 20.825 12.0471 20.825C12.2898 20.825 12.5415 20.9688 12.6403 21.2025L14.3572 25.3838L16.0835 21.2025C16.1829 20.9688 16.4261 20.825 16.6773 20.825C17.0189 20.825 17.2975 21.1036 17.2975 21.4277V26.5528C17.2985 26.7596 17.1367 26.9214 16.921 26.9214ZM22.1874 26.8674H19.4628C19.1662 26.8674 18.9235 26.6247 18.9235 26.3276V21.176C18.9235 20.9783 19.0853 20.816 19.31 20.816C19.5077 20.816 19.6695 20.9778 19.6695 21.176V26.2023H22.1874C22.3672 26.2023 22.5105 26.3461 22.5105 26.5259C22.511 26.7236 22.3672 26.8674 22.1874 26.8674Z" fill="white"/>
</g>
<defs>
<clipPath id="clip0_367_140">
<rect width="27.965" height="32" fill="white" transform="translate(0.0478516)"/>
</clipPath>
</defs>
</svg>
